<?xml version="1.0" encoding="UTF-8"?>
<svg xmlns="http://www.w3.org/2000/svg" xmlns:xlink="http://www.w3.org/1999/xlink" width="214pt" height="35pt" viewBox="0 0 214 35" version="1.1">
<g id="surface1">
<path style=" stroke:none;fill-rule:nonzero;fill:rgb(83.137255%,4.313725%,18.823529%);fill-opacity:1;" d="M 11.910156 29.96875 C 11.523438 29.96875 11.136719 29.824219 10.871094 29.53125 C 10.578125 29.238281 10.433594 28.851562 10.433594 28.4375 L 10.433594 6.804688 C 10.433594 6.390625 10.578125 6.003906 10.871094 5.734375 C 11.136719 5.445312 11.523438 5.296875 11.910156 5.296875 C 12.734375 5.296875 13.410156 5.980469 13.410156 6.804688 L 13.410156 27.003906 L 25.078125 27.003906 C 25.46875 27.003906 25.855469 27.148438 26.144531 27.441406 C 26.726562 28.023438 26.726562 28.949219 26.167969 29.554688 C 26.167969 29.554688 26.167969 29.554688 26.144531 29.578125 C 25.855469 29.871094 25.46875 30.015625 25.078125 30.015625 Z M 11.910156 29.96875 "/>
<path style=" stroke:none;fill-rule:nonzero;fill:rgb(83.137255%,4.313725%,18.823529%);fill-opacity:1;" d="M 32.125 29.96875 C 31.324219 29.992188 30.648438 29.386719 30.625 28.582031 C 30.625 28.535156 30.625 28.511719 30.625 28.460938 L 30.625 6.804688 C 30.597656 6.003906 31.203125 5.324219 32.003906 5.296875 C 32.050781 5.296875 32.074219 5.296875 32.125 5.296875 L 46.503906 5.296875 C 46.890625 5.273438 47.277344 5.421875 47.570312 5.6875 C 47.835938 5.953125 48.003906 6.320312 47.980469 6.707031 C 47.980469 7.074219 47.835938 7.4375 47.570312 7.703125 C 47.277344 7.972656 46.890625 8.117188 46.503906 8.117188 L 33.601562 8.117188 L 33.601562 16.140625 L 42.921875 16.140625 C 43.308594 16.113281 43.695312 16.261719 43.984375 16.527344 C 44.253906 16.796875 44.421875 17.160156 44.398438 17.546875 C 44.398438 17.914062 44.253906 18.277344 43.984375 18.546875 C 43.695312 18.8125 43.308594 18.957031 42.921875 18.957031 L 33.601562 18.957031 L 33.601562 27.171875 L 46.503906 27.171875 C 46.890625 27.148438 47.277344 27.296875 47.570312 27.5625 C 47.835938 27.828125 47.980469 28.195312 47.980469 28.558594 C 48.003906 28.949219 47.835938 29.3125 47.570312 29.578125 C 47.277344 29.847656 46.890625 29.992188 46.503906 29.96875 Z M 32.125 29.96875 "/>
<path style=" stroke:none;fill-rule:nonzero;fill:rgb(83.137255%,4.313725%,18.823529%);fill-opacity:1;" d="M 63.957031 30.285156 C 62.214844 30.308594 60.496094 29.992188 58.898438 29.359375 C 57.421875 28.777344 56.066406 27.878906 54.953125 26.734375 C 53.839844 25.570312 52.96875 24.207031 52.363281 22.726562 C 51.734375 21.097656 51.417969 19.371094 51.441406 17.644531 C 51.417969 15.921875 51.734375 14.195312 52.363281 12.589844 C 52.941406 11.109375 53.839844 9.722656 54.953125 8.578125 C 56.066406 7.4375 57.421875 6.539062 58.898438 5.929688 C 62.140625 4.691406 65.75 4.691406 68.992188 5.929688 C 70.492188 6.515625 71.824219 7.414062 72.964844 8.578125 C 74.078125 9.722656 74.972656 11.109375 75.554688 12.589844 C 76.183594 14.195312 76.496094 15.921875 76.472656 17.644531 C 76.496094 19.394531 76.183594 21.121094 75.554688 22.726562 C 74.949219 24.234375 74.078125 25.59375 72.964844 26.734375 C 71.851562 27.878906 70.492188 28.777344 68.992188 29.359375 C 67.394531 29.992188 65.675781 30.308594 63.957031 30.285156 Z M 63.957031 27.539062 C 65.289062 27.5625 66.597656 27.296875 67.808594 26.785156 C 68.96875 26.296875 70.011719 25.570312 70.882812 24.671875 C 71.753906 23.769531 72.429688 22.703125 72.890625 21.535156 C 73.351562 20.296875 73.59375 18.957031 73.59375 17.621094 C 73.59375 16.285156 73.375 14.972656 72.890625 13.707031 C 72.453125 12.515625 71.777344 11.449219 70.882812 10.546875 C 70.011719 9.648438 68.96875 8.945312 67.808594 8.457031 C 65.335938 7.460938 62.578125 7.460938 60.085938 8.457031 C 58.945312 8.945312 57.90625 9.648438 57.058594 10.546875 C 56.1875 11.472656 55.507812 12.542969 55.050781 13.707031 C 54.082031 16.234375 54.082031 19.007812 55.050781 21.535156 C 55.507812 22.703125 56.1875 23.769531 57.058594 24.671875 C 57.90625 25.570312 58.945312 26.296875 60.085938 26.785156 C 61.320312 27.296875 62.625 27.5625 63.957031 27.539062 Z M 63.957031 27.539062 "/>
<path style=" stroke:none;fill-rule:nonzero;fill:rgb(25.098039%,25.098039%,25.098039%);fill-opacity:1;" d="M 121.695312 5.613281 C 121.523438 5.175781 121.160156 4.957031 120.605469 4.957031 C 119.804688 4.957031 119.320312 5.296875 119.128906 5.953125 L 113.679688 24.984375 L 108.621094 6.417969 C 108.550781 6.101562 108.355469 5.832031 108.066406 5.664062 C 107.800781 5.492188 107.484375 5.394531 107.167969 5.394531 C 106.832031 5.394531 106.515625 5.492188 106.226562 5.6875 C 105.960938 5.859375 105.765625 6.125 105.667969 6.441406 L 100.683594 24.914062 L 95.308594 6.125 C 95.136719 5.421875 94.507812 4.933594 93.78125 4.957031 C 93.324219 4.933594 92.886719 5.152344 92.667969 5.566406 C 92.425781 5.953125 92.402344 6.488281 92.597656 7.144531 L 99.132812 28.996094 C 99.230469 29.335938 99.421875 29.652344 99.714844 29.894531 C 99.980469 30.113281 100.292969 30.234375 100.65625 30.234375 C 100.996094 30.234375 101.335938 30.113281 101.601562 29.894531 C 101.890625 29.652344 102.085938 29.335938 102.207031 28.972656 L 107.21875 10.207031 L 112.15625 28.972656 C 112.253906 29.3125 112.445312 29.605469 112.714844 29.847656 C 112.980469 30.089844 113.316406 30.210938 113.679688 30.210938 C 114.019531 30.210938 114.335938 30.089844 114.601562 29.871094 C 114.890625 29.628906 115.109375 29.3125 115.230469 28.949219 L 121.742188 7.121094 C 121.886719 6.636719 121.863281 6.101562 121.695312 5.613281 Z M 121.695312 5.613281 "/>
<path style=" stroke:none;fill-rule:nonzero;fill:rgb(25.098039%,25.098039%,25.098039%);fill-opacity:1;" d="M 134.308594 13.515625 C 133 12.734375 131.523438 12.347656 130.023438 12.394531 C 128.449219 12.371094 126.921875 12.761719 125.566406 13.539062 C 124.285156 14.292969 123.21875 15.386719 122.515625 16.722656 C 121.765625 18.15625 121.378906 19.761719 121.402344 21.390625 C 121.378906 23.015625 121.765625 24.621094 122.566406 26.03125 C 123.316406 27.367188 124.429688 28.460938 125.785156 29.191406 C 127.238281 29.96875 128.859375 30.382812 130.507812 30.359375 C 131.570312 30.332031 132.636719 30.164062 133.628906 29.796875 C 134.597656 29.484375 135.515625 28.996094 136.316406 28.363281 C 136.628906 28.171875 136.824219 27.804688 136.800781 27.441406 C 136.75 27.050781 136.558594 26.710938 136.242188 26.46875 C 136 26.25 135.664062 26.128906 135.347656 26.152344 C 135.007812 26.175781 134.667969 26.273438 134.378906 26.492188 C 133.847656 26.882812 133.242188 27.199219 132.613281 27.390625 C 131.933594 27.636719 131.207031 27.78125 130.480469 27.78125 C 129.320312 27.804688 128.183594 27.515625 127.191406 26.953125 C 126.246094 26.421875 125.472656 25.640625 124.9375 24.695312 C 124.550781 23.988281 124.285156 23.234375 124.1875 22.433594 L 136.679688 22.433594 C 137.042969 22.457031 137.40625 22.3125 137.671875 22.070312 C 137.9375 21.828125 138.058594 21.484375 138.058594 21.121094 C 138.082031 19.566406 137.769531 18.011719 137.089844 16.601562 C 136.460938 15.3125 135.515625 14.265625 134.308594 13.515625 Z M 126.851562 15.824219 C 127.820312 15.265625 128.910156 14.972656 130.023438 14.996094 C 131.039062 14.972656 132.03125 15.238281 132.878906 15.773438 C 133.675781 16.285156 134.308594 17.039062 134.71875 17.890625 C 135.03125 18.546875 135.226562 19.273438 135.300781 20.003906 L 124.210938 20.003906 C 124.308594 19.347656 124.503906 18.691406 124.792969 18.109375 C 125.253906 17.160156 125.953125 16.359375 126.851562 15.824219 Z M 126.851562 15.824219 "/>
<path style=" stroke:none;fill-rule:nonzero;fill:rgb(25.098039%,25.098039%,25.098039%);fill-opacity:1;" d="M 154.761719 13.585938 C 150.503906 11.082031 145.007812 12.515625 142.511719 16.796875 C 141.714844 18.203125 141.304688 19.785156 141.328125 21.414062 C 141.304688 23.015625 141.691406 24.597656 142.417969 26.007812 C 143.117188 27.320312 144.136719 28.4375 145.417969 29.214844 C 146.703125 29.992188 148.203125 30.40625 149.703125 30.382812 C 151.203125 30.40625 152.65625 30.015625 153.941406 29.238281 C 154.761719 28.730469 155.488281 28.074219 156.070312 27.320312 L 156.070312 28.777344 C 156.070312 29.628906 156.773438 30.308594 157.621094 30.308594 C 158.007812 30.308594 158.394531 30.140625 158.660156 29.871094 C 158.949219 29.578125 159.097656 29.191406 159.070312 28.800781 L 159.070312 21.390625 C 159.097656 19.785156 158.683594 18.203125 157.886719 16.796875 C 157.183594 15.457031 156.09375 14.363281 154.761719 13.585938 Z M 155.441406 24.597656 C 154.933594 25.519531 154.207031 26.296875 153.308594 26.859375 C 151.421875 27.953125 149.074219 27.953125 147.183594 26.859375 C 146.289062 26.324219 145.539062 25.546875 145.03125 24.597656 C 143.988281 22.578125 143.988281 20.171875 145.03125 18.15625 C 145.539062 17.234375 146.289062 16.453125 147.183594 15.894531 C 149.074219 14.800781 151.421875 14.800781 153.308594 15.894531 C 154.207031 16.453125 154.933594 17.234375 155.441406 18.15625 C 156.480469 20.171875 156.480469 22.578125 155.441406 24.597656 Z M 155.441406 24.597656 "/>
<path style=" stroke:none;fill-rule:nonzero;fill:rgb(25.098039%,25.098039%,25.098039%);fill-opacity:1;" d="M 169.53125 27.246094 L 168.730469 27.246094 C 168.222656 27.246094 167.785156 26.980469 167.472656 26.445312 C 167.132812 25.8125 166.964844 25.082031 166.988281 24.378906 L 166.988281 6.464844 C 166.988281 5.640625 166.335938 4.984375 165.511719 4.984375 C 164.6875 4.984375 164.035156 5.640625 164.035156 6.464844 L 164.035156 24.378906 C 164.011719 25.421875 164.226562 26.445312 164.640625 27.390625 C 165.003906 28.21875 165.558594 28.921875 166.285156 29.457031 C 167.011719 29.96875 167.859375 30.234375 168.730469 30.210938 L 168.925781 30.210938 C 169.410156 30.234375 169.894531 30.089844 170.304688 29.796875 C 170.667969 29.554688 170.859375 29.140625 170.859375 28.730469 C 170.886719 28.339844 170.765625 27.953125 170.496094 27.636719 C 170.230469 27.367188 169.894531 27.222656 169.53125 27.246094 Z M 169.53125 27.246094 "/>
<path style=" stroke:none;fill-rule:nonzero;fill:rgb(25.098039%,25.098039%,25.098039%);fill-opacity:1;" d="M 182.359375 27.246094 L 181.34375 27.246094 C 180.570312 27.269531 179.84375 26.90625 179.359375 26.296875 C 178.824219 25.640625 178.535156 24.792969 178.558594 23.941406 L 178.558594 15.773438 L 181.585938 15.773438 C 181.949219 15.796875 182.3125 15.652344 182.578125 15.410156 C 182.820312 15.191406 182.964844 14.851562 182.964844 14.511719 C 182.988281 14.144531 182.84375 13.78125 182.578125 13.539062 C 182.3125 13.296875 181.949219 13.171875 181.585938 13.199219 L 178.558594 13.199219 L 178.558594 8.386719 C 178.558594 7.996094 178.414062 7.609375 178.148438 7.316406 C 177.855469 7.023438 177.46875 6.878906 177.058594 6.902344 C 176.257812 6.878906 175.605469 7.484375 175.582031 8.289062 C 175.582031 8.3125 175.582031 8.359375 175.582031 8.386719 L 175.582031 13.171875 L 173.910156 13.171875 C 173.546875 13.148438 173.183594 13.296875 172.917969 13.539062 C 172.652344 13.78125 172.507812 14.144531 172.53125 14.511719 C 172.53125 14.851562 172.675781 15.167969 172.917969 15.410156 C 173.183594 15.652344 173.546875 15.796875 173.910156 15.773438 L 175.582031 15.773438 L 175.582031 23.941406 C 175.558594 25.058594 175.824219 26.175781 176.332031 27.148438 C 176.816406 28.074219 177.519531 28.828125 178.390625 29.386719 C 179.261719 29.945312 180.300781 30.234375 181.34375 30.210938 L 181.949219 30.210938 C 182.382812 30.234375 182.820312 30.089844 183.183594 29.796875 C 183.496094 29.53125 183.667969 29.140625 183.667969 28.730469 C 183.691406 28.339844 183.546875 27.953125 183.304688 27.660156 C 183.0625 27.390625 182.722656 27.246094 182.359375 27.246094 Z M 182.359375 27.246094 "/>
<path style=" stroke:none;fill-rule:nonzero;fill:rgb(25.098039%,25.098039%,25.098039%);fill-opacity:1;" d="M 203.734375 16.113281 C 203.105469 14.921875 202.136719 13.953125 200.953125 13.320312 C 199.71875 12.664062 198.335938 12.347656 196.957031 12.371094 C 195.625 12.347656 194.292969 12.664062 193.132812 13.296875 C 192.480469 13.636719 191.875 14.097656 191.367188 14.632812 L 191.367188 6.488281 C 191.390625 5.640625 190.734375 4.933594 189.914062 4.910156 C 189.066406 4.886719 188.363281 5.542969 188.339844 6.367188 C 188.339844 6.417969 188.339844 6.441406 188.339844 6.488281 L 188.339844 28.730469 C 188.339844 29.140625 188.484375 29.53125 188.75 29.796875 C 189.355469 30.382812 190.324219 30.382812 190.929688 29.796875 C 191.21875 29.507812 191.367188 29.117188 191.339844 28.730469 L 191.339844 19.445312 C 191.339844 18.667969 191.558594 17.890625 191.996094 17.257812 C 192.453125 16.601562 193.085938 16.066406 193.808594 15.703125 C 194.609375 15.3125 195.503906 15.09375 196.402344 15.117188 C 197.34375 15.09375 198.265625 15.3125 199.113281 15.726562 C 199.910156 16.113281 200.566406 16.746094 201 17.523438 C 201.460938 18.328125 201.679688 19.371094 201.679688 20.609375 L 201.679688 28.730469 C 201.652344 29.578125 202.308594 30.285156 203.128906 30.308594 C 203.976562 30.332031 204.679688 29.675781 204.703125 28.851562 C 204.703125 28.800781 204.703125 28.777344 204.703125 28.730469 L 204.703125 20.609375 C 204.777344 18.859375 204.4375 17.355469 203.734375 16.113281 Z M 203.734375 16.113281 "/>
<path style=" stroke:none;fill-rule:nonzero;fill:rgb(25.098039%,25.098039%,25.098039%);fill-opacity:1;" d="M 84.367188 4.738281 C 83.929688 4.738281 83.589844 5.078125 83.589844 5.515625 L 83.589844 29.675781 C 83.589844 30.113281 83.929688 30.453125 84.367188 30.453125 C 84.800781 30.453125 85.140625 30.113281 85.140625 29.675781 L 85.140625 5.515625 C 85.140625 5.105469 84.777344 4.738281 84.367188 4.738281 Z M 84.367188 4.738281 "/>
</g>
</svg>
