<?xml version="1.0" encoding="UTF-8"?>
<svg width="304px" height="105px" viewBox="0 0 304 105" version="1.1" xmlns="http://www.w3.org/2000/svg" xmlns:xlink="http://www.w3.org/1999/xlink">
    <title>extract-outlines</title>
    <defs>
        <linearGradient x1="46.6969716%" y1="43.7608983%" x2="82.1725764%" y2="78.031994%" id="linearGradient-1">
            <stop stop-color="#8DC63F" offset="0%"></stop>
            <stop stop-color="#009444" offset="100%"></stop>
        </linearGradient>
        <linearGradient x1="-217.979994%" y1="-252.748602%" x2="-119.270193%" y2="-252.748602%" id="linearGradient-2">
            <stop stop-color="#8DC63F" offset="0%"></stop>
            <stop stop-color="#009444" offset="100%"></stop>
        </linearGradient>
    </defs>
    <g id="extract-outlines" stroke="none" stroke-width="1" fill="none" fill-rule="evenodd">
        <g id="canopy_logo_only" transform="translate(209.000000, 0.000000)" fill-rule="nonzero">
            <path d="M40.6572097,1.8420014 L40.6838139,1.8420014 C46.164279,5.10609514 52.7195538,11.7310762 57.2582303,17.9312411 C59.5096275,21.0204925 61.5436417,24.2656773 63.3452712,27.642861 C67.2614093,34.7087905 63.6006715,42.0220812 58.8704448,43.9687071 C50.9317516,47.2489332 43.3868006,42.8663361 35.6715827,28.4871159 C31.5106859,20.7059896 19.5441169,20.7274993 14.0051225,13.5432666 C13.8987057,13.4088311 15.484316,8.96170505 15.6013745,8.85415666 C19.2833958,5.62770485 23.1995339,2.86908856 26.6634007,1.18057878 L26.6953258,1.18057878 C31.233389,-0.59833937 36.3037025,-0.358141122 40.6572097,1.8420014 Z" id="Path" fill="url(#linearGradient-1)"></path>
            <path d="M16.8129675,42.3374451 C24.8559746,36.8119791 31.6919966,28.3603207 37.0807046,21.0662769 C45.8874235,9.14177465 54.5606264,14.7315525 58,19.5871026 C53.284213,12.8236322 46.2025214,5.48671374 40.11953,1.85844948 C35.7394996,-0.355447664 30.6296479,-0.602778305 26.0576191,1.17781497 C19.3789427,4.38607611 13.4761963,9.01470205 8.75927912,14.7422712 C2.05677319,23.0706651 -2.99013367,36.0027207 2.04075127,41.5389054 C7.0716362,47.07509 13.1065619,44.9099219 16.8129675,42.3374451 Z" id="Path" fill="url(#linearGradient-2)"></path>
        </g>
        <g id="extract" transform="translate(30.920000, 55.960000)" fill="#000000" fill-rule="nonzero">
            <path d="M30.72,23.04 L30.72,25.6 L30.08,26.24 L10.24,26.24 L9.6,26.88 C9.6,27.904 10.112,29.0133333 11.136,30.208 C12.16,31.4026667 13.7813333,32 16,32 C18.3466667,32 19.84,31.36 20.48,30.08 L21.12,29.44 L28.8,29.44 L29.44,30.08 C29.2693333,31.1466667 28.9173333,32.192 28.384,33.216 C27.8506667,34.24 27.0933333,35.264 26.112,36.288 C25.1306667,37.312 23.7653333,38.1333333 22.016,38.752 C20.2666667,39.3706667 18.2613333,39.68 16,39.68 C10.8373333,39.68 6.88,38.1013333 4.128,34.944 C1.376,31.7866667 1.42108547e-14,27.8186667 1.42108547e-14,23.04 C1.42108547e-14,18.304 1.33333333,14.3466667 4,11.168 C6.66666667,7.98933333 10.4533333,6.4 15.36,6.4 C20.2666667,6.4 24.0533333,7.98933333 26.72,11.168 C29.3866667,14.3466667 30.72,18.304 30.72,23.04 Z M20.48,19.84 L21.12,19.2 C21.12,18.944 21.056,18.5813333 20.928,18.112 C20.8,17.6426667 20.5546667,17.0773333 20.192,16.416 C19.8293333,15.7546667 19.232,15.2 18.4,14.752 C17.568,14.304 16.5546667,14.08 15.36,14.08 C14.1653333,14.08 13.152,14.304 12.32,14.752 C11.488,15.2 10.8906667,15.7546667 10.528,16.416 C10.1653333,17.0773333 9.92,17.6426667 9.792,18.112 C9.664,18.5813333 9.6,18.944 9.6,19.2 L10.24,19.84 L20.48,19.84 Z" id="e"></path>
            <polygon id="x" points="62.62 38.4 61.98 39.04 58.14 39.04 56.86 38.4 48.54 28.16 47.9 28.16 39.58 38.4 38.3 39.04 34.46 39.04 33.82 38.4 33.82 32 41.5 23.04 41.5 22.4 34.46 14.08 34.46 7.68 35.1 7.04 38.94 7.04 40.22 7.68 47.9 17.28 48.54 17.28 56.22 7.68 57.5 7.04 61.34 7.04 61.98 7.68 61.98 14.08 54.94 22.4 54.94 23.04 62.62 32"></polygon>
            <path d="M80.44,15.36 L80.44,29.44 C80.44,30.72 81.08,31.36 82.36,31.36 L88.12,31.36 L88.76,32 L88.76,38.4 L88.12,39.04 L82.36,39.04 C79.2026667,39.04 76.6,38.2613333 74.552,36.704 C72.504,35.1466667 71.48,32.7253333 71.48,29.44 L71.48,15.36 L70.84,14.72 L66.36,14.72 L65.72,14.08 L65.72,7.68 L66.36,7.04 L70.84,7.04 L71.48,6.4 L71.48,0.64 L72.12,0 L79.8,0 L80.44,0.64 L80.44,6.4 L81.08,7.04 L88.12,7.04 L88.76,7.68 L88.76,14.08 L88.12,14.72 L81.08,14.72 L80.44,15.36 Z" id="t"></path>
            <path d="M116.18,14.08 L115.54,14.72 L111.06,14.72 C108.542667,14.72 106.74,15.3813333 105.652,16.704 C104.564,18.0266667 104.02,20.1386667 104.02,23.04 L104.02,38.4 L103.38,39.04 L95.7,39.04 L95.06,38.4 L95.06,7.68 L95.7,7.04 L102.74,7.04 L103.38,7.68 L104.02,9.6 L104.66,9.6 C104.745333,9.42933333 104.916,9.19466667 105.172,8.896 C105.428,8.59733333 106.153333,8.21333333 107.348,7.744 C108.542667,7.27466667 109.993333,7.04 111.7,7.04 L115.54,7.04 L116.18,7.68 L116.18,14.08 Z" id="r"></path>
            <path d="M146.16,38.4 L145.52,39.04 L138.48,39.04 L137.84,38.4 L137.2,37.12 L136.56,37.12 C136.389333,37.2906667 136.112,37.5253333 135.728,37.824 C135.344,38.1226667 134.544,38.5066667 133.328,38.976 C132.112,39.4453333 130.842667,39.68 129.52,39.68 C125.978667,39.68 123.173333,38.7733333 121.104,36.96 C119.034667,35.1466667 118,32.64 118,29.44 C118,27.6053333 118.330667,26.0053333 118.992,24.64 C119.653333,23.2746667 120.474667,22.2186667 121.456,21.472 C122.437333,20.7253333 123.6,20.1173333 124.944,19.648 C126.288,19.1786667 127.514667,18.88 128.624,18.752 C129.733333,18.624 130.885333,18.56 132.08,18.56 C132.848,18.56 133.605333,18.6133333 134.352,18.72 C135.098667,18.8266667 135.664,18.944 136.048,19.072 L136.56,19.2 L137.2,18.56 L137.2,17.92 C137.2,16.2986667 136.933333,15.2533333 136.4,14.784 C135.866667,14.3146667 134.64,14.08 132.72,14.08 C131.866667,14.08 131.216,14.1013333 130.768,14.144 C130.32,14.1866667 129.84,14.3573333 129.328,14.656 C128.816,14.9546667 128.453333,15.4026667 128.24,16 L127.6,16.64 L119.92,16.64 L119.28,16 C119.28,13.6106667 120.368,11.4133333 122.544,9.408 C124.72,7.40266667 128.112,6.4 132.72,6.4 C137.669333,6.4 141.146667,7.59466667 143.152,9.984 C145.157333,12.3733333 146.16,16.0853333 146.16,21.12 L146.16,38.4 Z M137.2,26.24 L136.56,25.6 C135.706667,25.1733333 134.426667,24.96 132.72,24.96 C128.88,24.96 126.96,26.24 126.96,28.8 C126.96,30.9333333 128.453333,32 131.44,32 C133.061333,32 134.426667,31.5733333 135.536,30.72 C136.645333,29.8666667 137.2,28.8 137.2,27.52 L137.2,26.24 Z" id="a"></path>
            <path d="M161.932,16.448 C160.737333,17.984 160.14,20.1813333 160.14,23.04 C160.14,25.8986667 160.748,28.1066667 161.964,29.664 C163.18,31.2213333 164.918667,32 167.18,32 C170.294667,32 172.214667,30.9333333 172.94,28.8 L173.58,28.16 L181.26,28.16 L181.9,28.8 C181.302667,32.4266667 179.649333,35.1466667 176.94,36.96 C174.230667,38.7733333 170.977333,39.68 167.18,39.68 C162.358667,39.68 158.486667,38.176 155.564,35.168 C152.641333,32.16 151.18,28.1173333 151.18,23.04 C151.18,17.9626667 152.641333,13.92 155.564,10.912 C158.486667,7.904 162.358667,6.4 167.18,6.4 C170.977333,6.4 174.230667,7.30666667 176.94,9.12 C179.649333,10.9333333 181.302667,13.6533333 181.9,17.28 L181.26,17.92 L173.58,17.92 L172.94,17.28 C172.214667,15.1466667 170.294667,14.08 167.18,14.08 C164.918667,14.08 163.169333,14.8693333 161.932,16.448 Z" id="c"></path>
            <path d="M199.08,15.36 L199.08,29.44 C199.08,30.72 199.72,31.36 201,31.36 L206.76,31.36 L207.4,32 L207.4,38.4 L206.76,39.04 L201,39.04 C197.842667,39.04 195.24,38.2613333 193.192,36.704 C191.144,35.1466667 190.12,32.7253333 190.12,29.44 L190.12,15.36 L189.48,14.72 L185,14.72 L184.36,14.08 L184.36,7.68 L185,7.04 L189.48,7.04 L190.12,6.4 L190.12,0.64 L190.76,0 L198.44,0 L199.08,0.64 L199.08,6.4 L199.72,7.04 L206.76,7.04 L207.4,7.68 L207.4,14.08 L206.76,14.72 L199.72,14.72 L199.08,15.36 Z" id="t"></path>
        </g>
    </g>
</svg>