<?xml version="1.0" encoding="UTF-8"?>
<svg width="304px" height="105px" viewBox="0 0 304 105" version="1.1" xmlns="http://www.w3.org/2000/svg" xmlns:xlink="http://www.w3.org/1999/xlink">
    <title>manager-outlines</title>
    <defs>
        <linearGradient x1="46.6969716%" y1="43.7608983%" x2="82.1725764%" y2="78.031994%" id="linearGradient-1">
            <stop stop-color="#8DC63F" offset="0%"></stop>
            <stop stop-color="#009444" offset="100%"></stop>
        </linearGradient>
        <linearGradient x1="-217.979994%" y1="-252.748602%" x2="-119.270193%" y2="-252.748602%" id="linearGradient-2">
            <stop stop-color="#8DC63F" offset="0%"></stop>
            <stop stop-color="#009444" offset="100%"></stop>
        </linearGradient>
    </defs>
    <g id="manager-outlines" stroke="none" stroke-width="1" fill="none" fill-rule="evenodd">
        <g id="canopy_logo_only" transform="translate(227.000000, 0.000000)" fill-rule="nonzero">
            <path d="M40.6572097,1.8420014 L40.6838139,1.8420014 C46.164279,5.10609514 52.7195538,11.7310762 57.2582303,17.9312411 C59.5096275,21.0204925 61.5436417,24.2656773 63.3452712,27.642861 C67.2614093,34.7087905 63.6006715,42.0220812 58.8704448,43.9687071 C50.9317516,47.2489332 43.3868006,42.8663361 35.6715827,28.4871159 C31.5106859,20.7059896 19.5441169,20.7274993 14.0051225,13.5432666 C13.8987057,13.4088311 15.484316,8.96170505 15.6013745,8.85415666 C19.2833958,5.62770485 23.1995339,2.86908856 26.6634007,1.18057878 L26.6953258,1.18057878 C31.233389,-0.59833937 36.3037025,-0.358141122 40.6572097,1.8420014 Z" id="Path" fill="url(#linearGradient-1)"></path>
            <path d="M16.8129675,42.3374451 C24.8559746,36.8119791 31.6919966,28.3603207 37.0807046,21.0662769 C45.8874235,9.14177465 54.5606264,14.7315525 58,19.5871026 C53.284213,12.8236322 46.2025214,5.48671374 40.11953,1.85844948 C35.7394996,-0.355447664 30.6296479,-0.602778305 26.0576191,1.17781497 C19.3789427,4.38607611 13.4761963,9.01470205 8.75927912,14.7422712 C2.05677319,23.0706651 -2.99013367,36.0027207 2.04075127,41.5389054 C7.0716362,47.07509 13.1065619,44.9099219 16.8129675,42.3374451 Z" id="Path" fill="url(#linearGradient-2)"></path>
        </g>
        <g id="manager" transform="translate(15.840000, 54.360000)" fill="#000000" fill-rule="nonzero">
            <path d="M48.64,32 L48,32.64 L40.32,32.64 L39.68,32 L39.68,13.44 C39.68,9.6 37.9733333,7.68 34.56,7.68 C30.72,7.68 28.8,10.0266667 28.8,14.72 L28.8,32 L28.16,32.64 L20.48,32.64 L19.84,32 L19.84,13.44 C19.84,9.6 18.1333333,7.68 14.72,7.68 C10.88,7.68 8.96,10.0266667 8.96,14.72 L8.96,32 L8.32,32.64 L0.64,32.64 L0,32 L0,1.28 L0.64,0.64 L7.68,0.64 L8.32,1.28 L8.96,3.2 L9.6,3.2 C9.64266667,3.11466667 9.71733333,2.99733333 9.824,2.848 C9.93066667,2.69866667 10.1973333,2.44266667 10.624,2.08 C11.0506667,1.71733333 11.5306667,1.39733333 12.064,1.12 C12.5973333,0.842666667 13.3333333,0.586666667 14.272,0.352 C15.2106667,0.117333333 16.2133333,0 17.28,0 C21.248,0 24.2346667,1.49333333 26.24,4.48 L26.88,4.48 C26.9653333,4.352 27.072,4.192 27.2,4 C27.328,3.808 27.6693333,3.456 28.224,2.944 C28.7786667,2.432 29.3866667,1.97333333 30.048,1.568 C30.7093333,1.16266667 31.616,0.8 32.768,0.48 C33.92,0.16 35.1573333,0 36.48,0 C40.3626667,0 43.36,1.09866667 45.472,3.296 C47.584,5.49333333 48.64,8.66133333 48.64,12.8 L48.64,32 Z" id="m"></path>
            <path d="M81.12,32 L80.48,32.64 L73.44,32.64 L72.8,32 L72.16,30.72 L71.52,30.72 C71.3493333,30.8906667 71.072,31.1253333 70.688,31.424 C70.304,31.7226667 69.504,32.1066667 68.288,32.576 C67.072,33.0453333 65.8026667,33.28 64.48,33.28 C60.9386667,33.28 58.1333333,32.3733333 56.064,30.56 C53.9946667,28.7466667 52.96,26.24 52.96,23.04 C52.96,21.2053333 53.2906667,19.6053333 53.952,18.24 C54.6133333,16.8746667 55.4346667,15.8186667 56.416,15.072 C57.3973333,14.3253333 58.56,13.7173333 59.904,13.248 C61.248,12.7786667 62.4746667,12.48 63.584,12.352 C64.6933333,12.224 65.8453333,12.16 67.04,12.16 C67.808,12.16 68.5653333,12.2133333 69.312,12.32 C70.0586667,12.4266667 70.624,12.544 71.008,12.672 L71.52,12.8 L72.16,12.16 L72.16,11.52 C72.16,9.89866667 71.8933333,8.85333333 71.36,8.384 C70.8266667,7.91466667 69.6,7.68 67.68,7.68 C66.8266667,7.68 66.176,7.70133333 65.728,7.744 C65.28,7.78666667 64.8,7.95733333 64.288,8.256 C63.776,8.55466667 63.4133333,9.00266667 63.2,9.6 L62.56,10.24 L54.88,10.24 L54.24,9.6 C54.24,7.21066667 55.328,5.01333333 57.504,3.008 C59.68,1.00266667 63.072,0 67.68,0 C72.6293333,0 76.1066667,1.19466667 78.112,3.584 C80.1173333,5.97333333 81.12,9.68533333 81.12,14.72 L81.12,32 Z M72.16,19.84 L71.52,19.2 C70.6666667,18.7733333 69.3866667,18.56 67.68,18.56 C63.84,18.56 61.92,19.84 61.92,22.4 C61.92,24.5333333 63.4133333,25.6 66.4,25.6 C68.0213333,25.6 69.3866667,25.1733333 70.496,24.32 C71.6053333,23.4666667 72.16,22.4 72.16,21.12 L72.16,19.84 Z" id="a"></path>
            <path d="M117.44,32 L116.8,32.64 L109.12,32.64 L108.48,32 L108.48,13.44 C108.48,9.6 106.773333,7.68 103.36,7.68 C98.6666667,7.68 96.32,10.4533333 96.32,16 L96.32,32 L95.68,32.64 L88,32.64 L87.36,32 L87.36,1.28 L88,0.64 L95.04,0.64 L95.68,1.28 L96.32,3.2 L96.96,3.2 C99.0933333,1.06666667 101.866667,0 105.28,0 C109.077333,0 112.053333,1.16266667 114.208,3.488 C116.362667,5.81333333 117.44,8.91733333 117.44,12.8 L117.44,32 Z" id="n"></path>
            <path d="M149.92,32 L149.28,32.64 L142.24,32.64 L141.6,32 L140.96,30.72 L140.32,30.72 C140.149333,30.8906667 139.872,31.1253333 139.488,31.424 C139.104,31.7226667 138.304,32.1066667 137.088,32.576 C135.872,33.0453333 134.602667,33.28 133.28,33.28 C129.738667,33.28 126.933333,32.3733333 124.864,30.56 C122.794667,28.7466667 121.76,26.24 121.76,23.04 C121.76,21.2053333 122.090667,19.6053333 122.752,18.24 C123.413333,16.8746667 124.234667,15.8186667 125.216,15.072 C126.197333,14.3253333 127.36,13.7173333 128.704,13.248 C130.048,12.7786667 131.274667,12.48 132.384,12.352 C133.493333,12.224 134.645333,12.16 135.84,12.16 C136.608,12.16 137.365333,12.2133333 138.112,12.32 C138.858667,12.4266667 139.424,12.544 139.808,12.672 L140.32,12.8 L140.96,12.16 L140.96,11.52 C140.96,9.89866667 140.693333,8.85333333 140.16,8.384 C139.626667,7.91466667 138.4,7.68 136.48,7.68 C135.626667,7.68 134.976,7.70133333 134.528,7.744 C134.08,7.78666667 133.6,7.95733333 133.088,8.256 C132.576,8.55466667 132.213333,9.00266667 132,9.6 L131.36,10.24 L123.68,10.24 L123.04,9.6 C123.04,7.21066667 124.128,5.01333333 126.304,3.008 C128.48,1.00266667 131.872,0 136.48,0 C141.429333,0 144.906667,1.19466667 146.912,3.584 C148.917333,5.97333333 149.92,9.68533333 149.92,14.72 L149.92,32 Z M140.96,19.84 L140.32,19.2 C139.466667,18.7733333 138.186667,18.56 136.48,18.56 C132.64,18.56 130.72,19.84 130.72,22.4 C130.72,24.5333333 132.213333,25.6 135.2,25.6 C136.821333,25.6 138.186667,25.1733333 139.296,24.32 C140.405333,23.4666667 140.96,22.4 140.96,21.12 L140.96,19.84 Z" id="a"></path>
            <path d="M186.24,1.28 L186.24,29.44 C186.24,34.944 184.757333,39.0933333 181.792,41.888 C178.826667,44.6826667 174.976,46.08 170.24,46.08 C166.442667,46.08 163.338667,45.2053333 160.928,43.456 C158.517333,41.7066667 157.141333,39.3813333 156.8,36.48 L157.44,35.84 L165.12,35.84 L165.76,36.48 C166.4,37.76 167.893333,38.4 170.24,38.4 C174.933333,38.4 177.28,35.6266667 177.28,30.08 L176.64,30.08 C176.469333,30.336 176.181333,30.6346667 175.776,30.976 C175.370667,31.3173333 174.453333,31.7866667 173.024,32.384 C171.594667,32.9813333 170.026667,33.28 168.32,33.28 C164.352,33.28 161.013333,31.7546667 158.304,28.704 C155.594667,25.6533333 154.24,21.632 154.24,16.64 C154.24,11.648 155.594667,7.62666667 158.304,4.576 C161.013333,1.52533333 164.352,0 168.32,0 C170.026667,0 171.573333,0.266666667 172.96,0.8 C174.346667,1.33333333 175.317333,1.87733333 175.872,2.432 L176.64,3.2 L177.28,3.2 L177.92,1.28 L178.56,0.64 L185.6,0.64 L186.24,1.28 Z M170.24,7.68 C165.546667,7.68 163.2,10.6666667 163.2,16.64 C163.2,22.6133333 165.546667,25.6 170.24,25.6 C174.933333,25.6 177.28,22.6133333 177.28,16.64 C177.28,10.6666667 174.933333,7.68 170.24,7.68 Z" id="g"></path>
            <path d="M221.92,16.64 L221.92,19.2 L221.28,19.84 L201.44,19.84 L200.8,20.48 C200.8,21.504 201.312,22.6133333 202.336,23.808 C203.36,25.0026667 204.981333,25.6 207.2,25.6 C209.546667,25.6 211.04,24.96 211.68,23.68 L212.32,23.04 L220,23.04 L220.64,23.68 C220.469333,24.7466667 220.117333,25.792 219.584,26.816 C219.050667,27.84 218.293333,28.864 217.312,29.888 C216.330667,30.912 214.965333,31.7333333 213.216,32.352 C211.466667,32.9706667 209.461333,33.28 207.2,33.28 C202.037333,33.28 198.08,31.7013333 195.328,28.544 C192.576,25.3866667 191.2,21.4186667 191.2,16.64 C191.2,11.904 192.533333,7.94666667 195.2,4.768 C197.866667,1.58933333 201.653333,0 206.56,0 C211.466667,0 215.253333,1.58933333 217.92,4.768 C220.586667,7.94666667 221.92,11.904 221.92,16.64 Z M211.68,13.44 L212.32,12.8 C212.32,12.544 212.256,12.1813333 212.128,11.712 C212,11.2426667 211.754667,10.6773333 211.392,10.016 C211.029333,9.35466667 210.432,8.8 209.6,8.352 C208.768,7.904 207.754667,7.68 206.56,7.68 C205.365333,7.68 204.352,7.904 203.52,8.352 C202.688,8.8 202.090667,9.35466667 201.728,10.016 C201.365333,10.6773333 201.12,11.2426667 200.992,11.712 C200.864,12.1813333 200.8,12.544 200.8,12.8 L201.44,13.44 L211.68,13.44 Z" id="e"></path>
            <path d="M248,7.68 L247.36,8.32 L242.88,8.32 C240.362667,8.32 238.56,8.98133333 237.472,10.304 C236.384,11.6266667 235.84,13.7386667 235.84,16.64 L235.84,32 L235.2,32.64 L227.52,32.64 L226.88,32 L226.88,1.28 L227.52,0.64 L234.56,0.64 L235.2,1.28 L235.84,3.2 L236.48,3.2 C236.565333,3.02933333 236.736,2.79466667 236.992,2.496 C237.248,2.19733333 237.973333,1.81333333 239.168,1.344 C240.362667,0.874666667 241.813333,0.64 243.52,0.64 L247.36,0.64 L248,1.28 L248,7.68 Z" id="r"></path>
        </g>
    </g>
</svg>