<?xml version="1.0" encoding="UTF-8"?>
<svg width="304px" height="105px" viewBox="0 0 304 105" version="1.1" xmlns="http://www.w3.org/2000/svg" xmlns:xlink="http://www.w3.org/1999/xlink">
    <title>reporter-outlines</title>
    <defs>
        <linearGradient x1="46.6969716%" y1="43.7608983%" x2="82.1725764%" y2="78.031994%" id="linearGradient-1">
            <stop stop-color="#8DC63F" offset="0%"></stop>
            <stop stop-color="#009444" offset="100%"></stop>
        </linearGradient>
        <linearGradient x1="-217.979994%" y1="-252.748602%" x2="-119.270193%" y2="-252.748602%" id="linearGradient-2">
            <stop stop-color="#8DC63F" offset="0%"></stop>
            <stop stop-color="#009444" offset="100%"></stop>
        </linearGradient>
    </defs>
    <g id="reporter-outlines" stroke="none" stroke-width="1" fill="none" fill-rule="evenodd">
        <g id="canopy_logo_only" transform="translate(216.000000, 0.000000)" fill-rule="nonzero">
            <path d="M40.6572097,1.8420014 L40.6838139,1.8420014 C46.164279,5.10609514 52.7195538,11.7310762 57.2582303,17.9312411 C59.5096275,21.0204925 61.5436417,24.2656773 63.3452712,27.642861 C67.2614093,34.7087905 63.6006715,42.0220812 58.8704448,43.9687071 C50.9317516,47.2489332 43.3868006,42.8663361 35.6715827,28.4871159 C31.5106859,20.7059896 19.5441169,20.7274993 14.0051225,13.5432666 C13.8987057,13.4088311 15.484316,8.96170505 15.6013745,8.85415666 C19.2833958,5.62770485 23.1995339,2.86908856 26.6634007,1.18057878 L26.6953258,1.18057878 C31.233389,-0.59833937 36.3037025,-0.358141122 40.6572097,1.8420014 Z" id="Path" fill="url(#linearGradient-1)"></path>
            <path d="M16.8129675,42.3374451 C24.8559746,36.8119791 31.6919966,28.3603207 37.0807046,21.0662769 C45.8874235,9.14177465 54.5606264,14.7315525 58,19.5871026 C53.284213,12.8236322 46.2025214,5.48671374 40.11953,1.85844948 C35.7394996,-0.355447664 30.6296479,-0.602778305 26.0576191,1.17781497 C19.3789427,4.38607611 13.4761963,9.01470205 8.75927912,14.7422712 C2.05677319,23.0706651 -2.99013367,36.0027207 2.04075127,41.5389054 C7.0716362,47.07509 13.1065619,44.9099219 16.8129675,42.3374451 Z" id="Path" fill="url(#linearGradient-2)"></path>
        </g>
        <g id="reporter" transform="translate(25.840000, 49.960000)" fill="#000000" fill-rule="nonzero">
            <path d="M21.12,14.08 L20.48,14.72 L16,14.72 C13.4826667,14.72 11.68,15.3813333 10.592,16.704 C9.504,18.0266667 8.96,20.1386667 8.96,23.04 L8.96,38.4 L8.32,39.04 L0.64,39.04 L0,38.4 L0,7.68 L0.64,7.04 L7.68,7.04 L8.32,7.68 L8.96,9.6 L9.6,9.6 C9.68533333,9.42933333 9.856,9.19466667 10.112,8.896 C10.368,8.59733333 11.0933333,8.21333333 12.288,7.744 C13.4826667,7.27466667 14.9333333,7.04 16.64,7.04 L20.48,7.04 L21.12,7.68 L21.12,14.08 Z" id="r"></path>
            <path d="M50.72,23.04 L50.72,25.6 L50.08,26.24 L30.24,26.24 L29.6,26.88 C29.6,27.904 30.112,29.0133333 31.136,30.208 C32.16,31.4026667 33.7813333,32 36,32 C38.3466667,32 39.84,31.36 40.48,30.08 L41.12,29.44 L48.8,29.44 L49.44,30.08 C49.2693333,31.1466667 48.9173333,32.192 48.384,33.216 C47.8506667,34.24 47.0933333,35.264 46.112,36.288 C45.1306667,37.312 43.7653333,38.1333333 42.016,38.752 C40.2666667,39.3706667 38.2613333,39.68 36,39.68 C30.8373333,39.68 26.88,38.1013333 24.128,34.944 C21.376,31.7866667 20,27.8186667 20,23.04 C20,18.304 21.3333333,14.3466667 24,11.168 C26.6666667,7.98933333 30.4533333,6.4 35.36,6.4 C40.2666667,6.4 44.0533333,7.98933333 46.72,11.168 C49.3866667,14.3466667 50.72,18.304 50.72,23.04 Z M40.48,19.84 L41.12,19.2 C41.12,18.944 41.056,18.5813333 40.928,18.112 C40.8,17.6426667 40.5546667,17.0773333 40.192,16.416 C39.8293333,15.7546667 39.232,15.2 38.4,14.752 C37.568,14.304 36.5546667,14.08 35.36,14.08 C34.1653333,14.08 33.152,14.304 32.32,14.752 C31.488,15.2 30.8906667,15.7546667 30.528,16.416 C30.1653333,17.0773333 29.92,17.6426667 29.792,18.112 C29.664,18.5813333 29.6,18.944 29.6,19.2 L30.24,19.84 L40.48,19.84 Z" id="e"></path>
            <path d="M81.984,11.008 C84.7146667,14.0373333 86.08,18.048 86.08,23.04 C86.08,28.032 84.7253333,32.0533333 82.016,35.104 C79.3066667,38.1546667 75.968,39.68 72,39.68 C70.2933333,39.68 68.7466667,39.4133333 67.36,38.88 C65.9733333,38.3466667 65.0026667,37.8026667 64.448,37.248 L63.68,36.48 L63.04,36.48 L63.04,51.2 L62.4,51.84 L54.72,51.84 L54.08,51.2 L54.08,7.68 L54.72,7.04 L61.76,7.04 L62.4,7.68 L63.04,9.6 L63.68,9.6 C63.8506667,9.344 64.1386667,9.04533333 64.544,8.704 C64.9493333,8.36266667 65.8666667,7.89333333 67.296,7.296 C68.7253333,6.69866667 70.2933333,6.4 72,6.4 C75.968,6.4 79.296,7.936 81.984,11.008 Z M70.08,32 C74.7733333,32 77.12,29.0133333 77.12,23.04 C77.12,17.0666667 74.7733333,14.08 70.08,14.08 C65.3866667,14.08 63.04,17.0666667 63.04,23.04 C63.04,29.0133333 65.3866667,32 70.08,32 Z" id="p"></path>
            <path d="M115.104,10.944 C118.048,13.9306667 119.52,17.9626667 119.52,23.04 C119.52,28.1173333 118.058667,32.16 115.136,35.168 C112.213333,38.176 108.341333,39.68 103.52,39.68 C98.6986667,39.68 94.8266667,38.176 91.904,35.168 C88.9813333,32.16 87.52,28.1173333 87.52,23.04 C87.52,17.9626667 88.9813333,13.92 91.904,10.912 C94.8266667,7.904 98.6986667,6.4 103.52,6.4 C108.341333,6.4 112.202667,7.91466667 115.104,10.944 Z M108.704,29.696 C109.941333,28.1173333 110.56,25.8986667 110.56,23.04 C110.56,20.1813333 109.952,17.9733333 108.736,16.416 C107.52,14.8586667 105.781333,14.08 103.52,14.08 C101.258667,14.08 99.52,14.8586667 98.304,16.416 C97.088,17.9733333 96.48,20.1813333 96.48,23.04 C96.48,25.8986667 97.088,28.1066667 98.304,29.664 C99.52,31.2213333 101.258667,32 103.52,32 C105.781333,32 107.509333,31.232 108.704,29.696 Z" id="o"></path>
            <path d="M144,14.08 L143.36,14.72 L138.88,14.72 C136.362667,14.72 134.56,15.3813333 133.472,16.704 C132.384,18.0266667 131.84,20.1386667 131.84,23.04 L131.84,38.4 L131.2,39.04 L123.52,39.04 L122.88,38.4 L122.88,7.68 L123.52,7.04 L130.56,7.04 L131.2,7.68 L131.84,9.6 L132.48,9.6 C132.565333,9.42933333 132.736,9.19466667 132.992,8.896 C133.248,8.59733333 133.973333,8.21333333 135.168,7.744 C136.362667,7.27466667 137.813333,7.04 139.52,7.04 L143.36,7.04 L144,7.68 L144,14.08 Z" id="r"></path>
            <path d="M158.88,15.36 L158.88,29.44 C158.88,30.72 159.52,31.36 160.8,31.36 L166.56,31.36 L167.2,32 L167.2,38.4 L166.56,39.04 L160.8,39.04 C157.642667,39.04 155.04,38.2613333 152.992,36.704 C150.944,35.1466667 149.92,32.7253333 149.92,29.44 L149.92,15.36 L149.28,14.72 L144.8,14.72 L144.16,14.08 L144.16,7.68 L144.8,7.04 L149.28,7.04 L149.92,6.4 L149.92,0.64 L150.56,0 L158.24,0 L158.88,0.64 L158.88,6.4 L159.52,7.04 L166.56,7.04 L167.2,7.68 L167.2,14.08 L166.56,14.72 L159.52,14.72 L158.88,15.36 Z" id="t"></path>
            <path d="M198.72,23.04 L198.72,25.6 L198.08,26.24 L178.24,26.24 L177.6,26.88 C177.6,27.904 178.112,29.0133333 179.136,30.208 C180.16,31.4026667 181.781333,32 184,32 C186.346667,32 187.84,31.36 188.48,30.08 L189.12,29.44 L196.8,29.44 L197.44,30.08 C197.269333,31.1466667 196.917333,32.192 196.384,33.216 C195.850667,34.24 195.093333,35.264 194.112,36.288 C193.130667,37.312 191.765333,38.1333333 190.016,38.752 C188.266667,39.3706667 186.261333,39.68 184,39.68 C178.837333,39.68 174.88,38.1013333 172.128,34.944 C169.376,31.7866667 168,27.8186667 168,23.04 C168,18.304 169.333333,14.3466667 172,11.168 C174.666667,7.98933333 178.453333,6.4 183.36,6.4 C188.266667,6.4 192.053333,7.98933333 194.72,11.168 C197.386667,14.3466667 198.72,18.304 198.72,23.04 Z M188.48,19.84 L189.12,19.2 C189.12,18.944 189.056,18.5813333 188.928,18.112 C188.8,17.6426667 188.554667,17.0773333 188.192,16.416 C187.829333,15.7546667 187.232,15.2 186.4,14.752 C185.568,14.304 184.554667,14.08 183.36,14.08 C182.165333,14.08 181.152,14.304 180.32,14.752 C179.488,15.2 178.890667,15.7546667 178.528,16.416 C178.165333,17.0773333 177.92,17.6426667 177.792,18.112 C177.664,18.5813333 177.6,18.944 177.6,19.2 L178.24,19.84 L188.48,19.84 Z" id="e"></path>
            <path d="M223.2,14.08 L222.56,14.72 L218.08,14.72 C215.562667,14.72 213.76,15.3813333 212.672,16.704 C211.584,18.0266667 211.04,20.1386667 211.04,23.04 L211.04,38.4 L210.4,39.04 L202.72,39.04 L202.08,38.4 L202.08,7.68 L202.72,7.04 L209.76,7.04 L210.4,7.68 L211.04,9.6 L211.68,9.6 C211.765333,9.42933333 211.936,9.19466667 212.192,8.896 C212.448,8.59733333 213.173333,8.21333333 214.368,7.744 C215.562667,7.27466667 217.013333,7.04 218.72,7.04 L222.56,7.04 L223.2,7.68 L223.2,14.08 Z" id="r"></path>
        </g>
    </g>
</svg>