<?xml version="1.0" encoding="UTF-8"?>
<svg width="304px" height="105px" viewBox="0 0 304 105" version="1.1" xmlns="http://www.w3.org/2000/svg" xmlns:xlink="http://www.w3.org/1999/xlink">
    <title>visualizer-outlines</title>
    <defs>
        <linearGradient x1="46.6969716%" y1="43.7608983%" x2="82.1725764%" y2="78.031994%" id="linearGradient-1">
            <stop stop-color="#8DC63F" offset="0%"></stop>
            <stop stop-color="#009444" offset="100%"></stop>
        </linearGradient>
        <linearGradient x1="-217.979994%" y1="-252.748602%" x2="-119.270193%" y2="-252.748602%" id="linearGradient-2">
            <stop stop-color="#8DC63F" offset="0%"></stop>
            <stop stop-color="#009444" offset="100%"></stop>
        </linearGradient>
    </defs>
    <g id="visualizer-outlines" stroke="none" stroke-width="1" fill="none" fill-rule="evenodd">
        <g id="canopy_logo_only" transform="translate(237.000000, 0.000000)" fill-rule="nonzero">
            <path d="M40.6572097,1.8420014 L40.6838139,1.8420014 C46.164279,5.10609514 52.7195538,11.7310762 57.2582303,17.9312411 C59.5096275,21.0204925 61.5436417,24.2656773 63.3452712,27.642861 C67.2614093,34.7087905 63.6006715,42.0220812 58.8704448,43.9687071 C50.9317516,47.2489332 43.3868006,42.8663361 35.6715827,28.4871159 C31.5106859,20.7059896 19.5441169,20.7274993 14.0051225,13.5432666 C13.8987057,13.4088311 15.484316,8.96170505 15.6013745,8.85415666 C19.2833958,5.62770485 23.1995339,2.86908856 26.6634007,1.18057878 L26.6953258,1.18057878 C31.233389,-0.59833937 36.3037025,-0.358141122 40.6572097,1.8420014 Z" id="Path" fill="url(#linearGradient-1)"></path>
            <path d="M16.8129675,42.3374451 C24.8559746,36.8119791 31.6919966,28.3603207 37.0807046,21.0662769 C45.8874235,9.14177465 54.5606264,14.7315525 58,19.5871026 C53.284213,12.8236322 46.2025214,5.48671374 40.11953,1.85844948 C35.7394996,-0.355447664 30.6296479,-0.602778305 26.0576191,1.17781497 C19.3789427,4.38607611 13.4761963,9.01470205 8.75927912,14.7422712 C2.05677319,23.0706651 -2.99013367,36.0027207 2.04075127,41.5389054 C7.0716362,47.07509 13.1065619,44.9099219 16.8129675,42.3374451 Z" id="Path" fill="url(#linearGradient-2)"></path>
        </g>
        <g id="visualizer" transform="translate(2.920000, 48.200000)" fill="#000000" fill-rule="nonzero">
            <polygon id="v" points="30.08 19.84 19.2 44.16 18.56 44.8 11.52 44.8 10.88 44.16 0 19.84 0 13.44 0.64 12.8 6.4 12.8 7.04 13.44 14.72 33.28 15.36 33.28 23.04 13.44 23.68 12.8 29.44 12.8 30.08 13.44"></polygon>
            <path d="M43.7,7.04 L43.06,7.68 L35.38,7.68 L34.74,7.04 L34.74,0.64 L35.38,0 L43.06,0 L43.7,0.64 L43.7,7.04 Z M43.7,44.16 L43.06,44.8 L35.38,44.8 L34.74,44.16 L34.74,13.44 L35.38,12.8 L43.06,12.8 L43.7,13.44 L43.7,44.16 Z" id="i"></path>
            <path d="M76.52,35.2 C76.52,38.0586667 75.368,40.48 73.064,42.464 C70.76,44.448 67.2186667,45.44 62.44,45.44 C58.0453333,45.44 54.6,44.4373333 52.104,42.432 C49.608,40.4266667 48.36,37.8026667 48.36,34.56 L49,33.92 L56.68,33.92 L57.32,34.56 C57.32,35.7546667 57.7466667,36.5866667 58.6,37.056 C59.4533333,37.5253333 60.7333333,37.76 62.44,37.76 C65.8533333,37.76 67.56,36.9066667 67.56,35.2 C67.56,34.8586667 67.5173333,34.5493333 67.432,34.272 C67.3466667,33.9946667 67.176,33.76 66.92,33.568 C66.664,33.376 66.4506667,33.216 66.28,33.088 C66.1093333,32.96 65.7786667,32.8426667 65.288,32.736 C64.7973333,32.6293333 64.4133333,32.544 64.136,32.48 C63.8586667,32.416 63.3786667,32.3306667 62.696,32.224 C62.0133333,32.1173333 61.5013333,32.0426667 61.16,32 C53.0533333,30.6346667 49,27.2213333 49,21.76 C49,18.9866667 50.1093333,16.6933333 52.328,14.88 C54.5466667,13.0666667 57.9173333,12.16 62.44,12.16 C66.4506667,12.16 69.6933333,12.992 72.168,14.656 C74.6426667,16.32 75.88,18.688 75.88,21.76 L75.24,22.4 L67.56,22.4 L66.92,21.76 C66.92,20.48 65.4266667,19.84 62.44,19.84 C60.8186667,19.84 59.6666667,20.032 58.984,20.416 C58.3013333,20.8 57.96,21.4613333 57.96,22.4 C57.96,22.912 58.0773333,23.328 58.312,23.648 C58.5466667,23.968 58.984,24.2346667 59.624,24.448 C60.264,24.6613333 60.7973333,24.8213333 61.224,24.928 C61.6506667,25.0346667 62.3866667,25.152 63.432,25.28 C64.4773333,25.408 65.2133333,25.5146667 65.64,25.6 C66.7066667,25.7706667 67.592,25.9413333 68.296,26.112 C69,26.2826667 69.928,26.6026667 71.08,27.072 C72.232,27.5413333 73.16,28.0853333 73.864,28.704 C74.568,29.3226667 75.1866667,30.1973333 75.72,31.328 C76.2533333,32.4586667 76.52,33.7493333 76.52,35.2 Z" id="s"></path>
            <path d="M80.54,13.44 L81.18,12.8 L88.86,12.8 L89.5,13.44 L89.5,32 C89.5,35.84 91.2066667,37.76 94.62,37.76 C96.7533333,37.76 98.3533333,37.0666667 99.42,35.68 C100.486667,34.2933333 101.02,32.4266667 101.02,30.08 L101.02,13.44 L101.66,12.8 L109.34,12.8 L109.98,13.44 L109.98,44.16 L109.34,44.8 L102.3,44.8 L101.66,44.16 L101.02,42.24 L100.38,42.24 C100.337333,42.3253333 100.262667,42.4426667 100.156,42.592 C100.049333,42.7413333 99.7826667,42.9973333 99.356,43.36 C98.9293333,43.7226667 98.4493333,44.0426667 97.916,44.32 C97.3826667,44.5973333 96.6466667,44.8533333 95.708,45.088 C94.7693333,45.3226667 93.7666667,45.44 92.7,45.44 C88.9026667,45.44 85.9266667,44.2773333 83.772,41.952 C81.6173333,39.6266667 80.54,36.5226667 80.54,32.64 L80.54,13.44 Z" id="u"></path>
            <path d="M142.8,44.16 L142.16,44.8 L135.12,44.8 L134.48,44.16 L133.84,42.88 L133.2,42.88 C133.029333,43.0506667 132.752,43.2853333 132.368,43.584 C131.984,43.8826667 131.184,44.2666667 129.968,44.736 C128.752,45.2053333 127.482667,45.44 126.16,45.44 C122.618667,45.44 119.813333,44.5333333 117.744,42.72 C115.674667,40.9066667 114.64,38.4 114.64,35.2 C114.64,33.3653333 114.970667,31.7653333 115.632,30.4 C116.293333,29.0346667 117.114667,27.9786667 118.096,27.232 C119.077333,26.4853333 120.24,25.8773333 121.584,25.408 C122.928,24.9386667 124.154667,24.64 125.264,24.512 C126.373333,24.384 127.525333,24.32 128.72,24.32 C129.488,24.32 130.245333,24.3733333 130.992,24.48 C131.738667,24.5866667 132.304,24.704 132.688,24.832 L133.2,24.96 L133.84,24.32 L133.84,23.68 C133.84,22.0586667 133.573333,21.0133333 133.04,20.544 C132.506667,20.0746667 131.28,19.84 129.36,19.84 C128.506667,19.84 127.856,19.8613333 127.408,19.904 C126.96,19.9466667 126.48,20.1173333 125.968,20.416 C125.456,20.7146667 125.093333,21.1626667 124.88,21.76 L124.24,22.4 L116.56,22.4 L115.92,21.76 C115.92,19.3706667 117.008,17.1733333 119.184,15.168 C121.36,13.1626667 124.752,12.16 129.36,12.16 C134.309333,12.16 137.786667,13.3546667 139.792,15.744 C141.797333,18.1333333 142.8,21.8453333 142.8,26.88 L142.8,44.16 Z M133.84,32 L133.2,31.36 C132.346667,30.9333333 131.066667,30.72 129.36,30.72 C125.52,30.72 123.6,32 123.6,34.56 C123.6,36.6933333 125.093333,37.76 128.08,37.76 C129.701333,37.76 131.066667,37.3333333 132.176,36.48 C133.285333,35.6266667 133.84,34.56 133.84,33.28 L133.84,32 Z" id="a"></path>
            <polygon id="l" points="157.7 44.16 157.06 44.8 149.38 44.8 148.74 44.16 148.74 0.64 149.38 0 157.06 0 157.7 0.64"></polygon>
            <path d="M173.24,7.04 L172.6,7.68 L164.92,7.68 L164.28,7.04 L164.28,0.64 L164.92,0 L172.6,0 L173.24,0.64 L173.24,7.04 Z M173.24,44.16 L172.6,44.8 L164.92,44.8 L164.28,44.16 L164.28,13.44 L164.92,12.8 L172.6,12.8 L173.24,13.44 L173.24,44.16 Z" id="i"></path>
            <polygon id="z" points="206.7 44.16 206.06 44.8 179.18 44.8 178.54 44.16 178.54 37.12 179.18 35.84 193.9 21.12 193.9 20.48 179.82 20.48 179.18 19.84 179.18 13.44 179.82 12.8 205.42 12.8 206.06 13.44 206.06 20.48 205.42 21.76 190.7 36.48 190.7 37.12 206.06 37.12 206.7 37.76"></polygon>
            <path d="M239.52,28.8 L239.52,31.36 L238.88,32 L219.04,32 L218.4,32.64 C218.4,33.664 218.912,34.7733333 219.936,35.968 C220.96,37.1626667 222.581333,37.76 224.8,37.76 C227.146667,37.76 228.64,37.12 229.28,35.84 L229.92,35.2 L237.6,35.2 L238.24,35.84 C238.069333,36.9066667 237.717333,37.952 237.184,38.976 C236.650667,40 235.893333,41.024 234.912,42.048 C233.930667,43.072 232.565333,43.8933333 230.816,44.512 C229.066667,45.1306667 227.061333,45.44 224.8,45.44 C219.637333,45.44 215.68,43.8613333 212.928,40.704 C210.176,37.5466667 208.8,33.5786667 208.8,28.8 C208.8,24.064 210.133333,20.1066667 212.8,16.928 C215.466667,13.7493333 219.253333,12.16 224.16,12.16 C229.066667,12.16 232.853333,13.7493333 235.52,16.928 C238.186667,20.1066667 239.52,24.064 239.52,28.8 Z M229.28,25.6 L229.92,24.96 C229.92,24.704 229.856,24.3413333 229.728,23.872 C229.6,23.4026667 229.354667,22.8373333 228.992,22.176 C228.629333,21.5146667 228.032,20.96 227.2,20.512 C226.368,20.064 225.354667,19.84 224.16,19.84 C222.965333,19.84 221.952,20.064 221.12,20.512 C220.288,20.96 219.690667,21.5146667 219.328,22.176 C218.965333,22.8373333 218.72,23.4026667 218.592,23.872 C218.464,24.3413333 218.4,24.704 218.4,24.96 L219.04,25.6 L229.28,25.6 Z" id="e"></path>
            <path d="M265.3,19.84 L264.66,20.48 L260.18,20.48 C257.662667,20.48 255.86,21.1413333 254.772,22.464 C253.684,23.7866667 253.14,25.8986667 253.14,28.8 L253.14,44.16 L252.5,44.8 L244.82,44.8 L244.18,44.16 L244.18,13.44 L244.82,12.8 L251.86,12.8 L252.5,13.44 L253.14,15.36 L253.78,15.36 C253.865333,15.1893333 254.036,14.9546667 254.292,14.656 C254.548,14.3573333 255.273333,13.9733333 256.468,13.504 C257.662667,13.0346667 259.113333,12.8 260.82,12.8 L264.66,12.8 L265.3,13.44 L265.3,19.84 Z" id="r"></path>
        </g>
    </g>
</svg>